<svg width="79" height="81" viewBox="0 0 79 81" fill="none" xmlns="http://www.w3.org/2000/svg">
<g id="icon-0" clip-path="url(#clip0_7_7)">
<path id="Vector" d="M76.3246 18.5117L65.7971 24.3366L55.2695 18.5117V5.82486L65.7971 0L71.9381 3.04482V3.92153H69.3063V5.67495L65.7971 4.0092L58.7787 7.89215V16.4453L65.7971 20.3283L72.8154 16.4453V12.6886H76.3246" fill="#FEDE3E"/>
<path id="Vector_2" d="M35.5306 77.2242C25.9321 77.2242 18.4233 69.4627 18.4233 59.9232V36.2476C18.4233 26.709 25.9321 18.9475 35.5306 18.9475C45.1291 18.9475 52.6378 26.7099 52.6378 36.2476V59.9232C52.6378 69.4636 45.1291 77.2242 35.5306 77.2242ZM35.5306 23.2969C28.3315 23.2969 23.6871 29.106 23.6871 36.2476V59.9232C23.6871 67.0649 28.3315 72.8748 35.5306 72.8748C42.7305 72.8748 47.3741 67.0649 47.3741 59.9232V36.2476C47.3741 29.1068 42.7305 23.2969 35.5306 23.2969Z" fill="#FEDE3E"/>
<path id="Vector_3" d="M62.6678 49.3904C66.1489 49.3904 71.3724 53.6749 71.3724 58.9579C71.3724 64.2419 67.0868 68.5263 61.7976 68.5263C56.5101 68.5263 52.2236 64.2419 52.2236 58.9579" fill="#FEDE3E"/>
<path id="Vector_4" d="M65.5199 54.4235L48.9829 32.6653L51.4885 30.2798L69.63 53.7406L65.5199 54.4235Z" fill="#FEDE3E"/>
<path id="Vector_5" d="M51.3534 37.2128C51.3534 28.5658 44.3377 21.5574 35.6858 21.5574C27.0321 21.5574 20.019 28.5667 20.019 37.2128" fill="#FEDE3E"/>
<path id="Vector_6" d="M50.883 40.7434H22.8096V46.0037H50.883V40.7434Z" fill="#FEDE3E"/>
<path id="Vector_7" d="M50.883 48.6338H22.8096V53.8941H50.883V48.6338Z" fill="#FEDE3E"/>
<path id="Vector_8" d="M50.883 56.5242H22.8096V61.7844H50.883V56.5242Z" fill="#FEDE3E"/>
<path id="Vector_9" d="M8.70364 49.3904C5.22166 49.3904 0 53.6749 0 58.9579C0 64.2427 4.28559 68.5263 9.5748 68.5263C14.864 68.5263 19.1487 64.2419 19.1487 58.9579" fill="#FEDE3E"/>
<path id="Vector_10" d="M5.92103 54.015L1.74072 53.7406L19.8832 30.2798L22.458 32.2559L5.92103 54.015Z" fill="#FEDE3E"/>
<g id="Group">
<path id="Vector_11" d="M31.3335 75.0499L35.6858 80.2699L40.038 75.0499" fill="#FEDE3E"/>
<path id="Vector_12" d="M35.6855 80.9475L30.999 75.3287L31.6684 74.7711L35.6855 79.5886L39.7027 74.7711L40.3729 75.3287L35.6855 80.9475Z" fill="#FEDE3E"/>
</g>
<path id="Vector_13" d="M29.9145 20.869L28.1738 15.6499L24.0457 17.0249L25.7864 22.244L29.9145 20.869Z" fill="#FEDE3E"/>
<path id="Vector_14" d="M47.3224 17.0233L43.1938 15.6476L41.4532 20.8645L45.5817 22.2402L47.3224 17.0233Z" fill="#FEDE3E"/>
<path id="Vector_15" d="M76.3248 3.0448V5.67493H78.9567V8.30506H76.3248V10.9352H73.6929V8.30506H71.061V5.67493H73.6929V3.0448H76.3248Z" fill="#FEDE3E"/>
</g>
<defs>
<clipPath id="clip0_7_7">
<rect width="78.9565" height="80.9475" fill="white"/>
</clipPath>
</defs>
</svg>
