<svg xmlns="http://www.w3.org/2000/svg" version="1.1" xmlns:xlink="http://www.w3.org/1999/xlink" xmlns:svgjs="http://svgjs.dev/svgjs" width="1000" height="171" viewBox="0 0 1000 171"><g transform="matrix(1,0,0,1,-0.6060606060606233,-0.055366442332314136)"><svg viewBox="0 0 396 68" data-background-color="#ffffff" preserveAspectRatio="xMidYMid meet" height="171" width="1000" xmlns="http://www.w3.org/2000/svg" xmlns:xlink="http://www.w3.org/1999/xlink"><g id="tight-bounds" transform="matrix(1,0,0,1,0.2400000000000091,0.0220170647871214)"><svg viewBox="0 0 395.52 67.95596587042576" height="67.95596587042576" width="395.52"><g><svg viewBox="0 0 518.638205231729 89.10942600583091" height="67.95596587042576" width="395.52"><g><rect width="5.814746742498893" height="77.37432069970846" x="102.08160837797644" y="5.8675526530612245" fill="#000000" opacity="1" stroke-width="0" stroke="transparent" fill-opacity="1" class="rect-r$-0" data-fill-palette-color="primary" rx="1%" id="r$-0" data-palette-color="#000000"></rect></g><g transform="matrix(1,0,0,1,123.11820523172898,12.315412711370264)"><svg viewBox="0 0 395.52 64.47860058309038" height="64.47860058309038" width="395.52"><g id="textblocktransform"><svg viewBox="0 0 395.52 64.47860058309038" height="64.47860058309038" width="395.52" id="textblock"><g><svg viewBox="0 0 395.52 64.47860058309038" height="64.47860058309038" width="395.52"><g transform="matrix(1,0,0,1,0,0)"><svg width="395.52" viewBox="1.27 -32.42 200.95999999999998 32.760000000000005" height="64.47860058309038" data-palette-color="#000000"><path d="M8.54-32.03L8.54-32.03Q9.52-32.03 15.38-32.32L15.38-32.32Q15.53-31.88 15.53-31.45L15.53-31.45Q15.53-30.52 15.33-30.52L15.33-30.52Q14.89-30.52 13.57-30.1 12.26-29.69 12.16-29.35L12.16-29.35Q11.82-28.03 11.82-25.44L11.82-25.44 11.82-6.93Q11.82-4.54 12.21-3.42L12.21-3.42Q12.45-2.64 15.53-2.64L15.53-2.64 16.8-2.64Q19.82-2.64 22.27-3.91L22.27-3.91Q23.1-4.35 24.15-5.57 25.2-6.79 25.78-8.3L25.78-8.3Q25.88-8.59 26.46-8.59L26.46-8.59Q27.64-8.59 27.93-8.3L27.93-8.3Q25.54-1.56 25.29 0.1L25.29 0.1Q22.51 0.1 16.6 0 10.69-0.1 8.59-0.1L8.59-0.1 1.46 0.2Q1.27 0 1.27-0.63L1.27-0.63Q1.27-1.61 1.46-1.61L1.46-1.61Q2.05-1.61 3.3-1.95 4.54-2.29 4.69-2.69L4.69-2.69Q4.98-3.81 4.98-6.98L4.98-6.98 4.98-25.63Q4.98-28.61 4.59-29.3L4.59-29.3Q4.35-29.69 3.22-30.1 2.1-30.52 1.56-30.52L1.56-30.52Q1.37-30.52 1.37-31.35L1.37-31.35Q1.37-32.23 1.46-32.32L1.46-32.32Q8.2-32.03 8.54-32.03ZM40.82-19.14L40.82-19.14Q38.91-19.14 38.03-17.31 37.16-15.48 37.16-13.72L37.16-13.72Q37.16-13.43 37.5-13.43L37.5-13.43 43.7-13.43Q44.38-13.43 44.38-14.36L44.38-14.36Q44.38-16.21 43.38-17.68 42.38-19.14 40.82-19.14ZM41.06-21.83L41.06-21.83Q45.46-21.83 48.12-18.77 50.78-15.72 50.78-12.55L50.78-12.55Q50.78-11.43 50.31-11.08 49.85-10.74 48.48-10.74L48.48-10.74 37.45-10.74Q37.16-10.74 37.16-10.4L37.16-10.4Q37.16-7.76 38.64-5.66 40.13-3.56 42.92-3.56L42.92-3.56Q44.53-3.56 45.99-4.03 47.46-4.49 48.04-4.86 48.63-5.22 49.61-5.96L49.61-5.96Q50.05-5.76 50.05-5.03L50.05-5.03Q50.05-4.44 49.85-4.05L49.85-4.05Q49.36-2.88 46.92-1.27 44.48 0.34 41.45 0.34L41.45 0.34Q36.96 0.34 33.71-2.93 30.47-6.2 30.47-10.79L30.47-10.79Q30.47-15.48 33.4-18.65 36.33-21.83 41.06-21.83ZM62.06-3.17L62.06-3.17Q63.33-3.17 64.03-3.78 64.74-4.39 64.74-5.27L64.74-5.27 64.74-10.21Q64.64-10.16 63.79-9.89 62.93-9.62 62.69-9.52 62.45-9.42 61.76-9.16 61.08-8.89 60.81-8.67 60.54-8.45 60.15-8.11 59.76-7.76 59.61-7.37 59.47-6.98 59.47-6.49L59.47-6.49Q59.47-4.74 60.22-3.96 60.98-3.17 62.06-3.17ZM64.01-21.92L64.01-21.92Q67.43-21.92 69.26-20.04 71.09-18.16 71.09-13.23L71.09-13.23 71.09-5.32Q71.09-3.66 72.26-3.66L72.26-3.66Q73.09-3.66 73.92-4.3L73.92-4.3Q74.26-4.1 74.26-3.56L74.26-3.56Q74.26-2.34 73.92-1.76L73.92-1.76Q73.24-1.12 71.7-0.42 70.16 0.29 68.79 0.29L68.79 0.29Q67.62 0.29 66.55-0.42 65.47-1.12 65.13-2.05L65.13-2.05Q65.08-2.05 64.74-1.78 64.4-1.51 63.86-1.17 63.33-0.83 62.62-0.49 61.91-0.15 60.93 0.1 59.96 0.34 58.98 0.34L58.98 0.34Q56.29 0.34 54.71-1.15 53.12-2.64 53.12-4.88L53.12-4.88Q53.12-6.2 53.73-7.3 54.34-8.4 55.15-9.11 55.95-9.81 57.32-10.42 58.69-11.04 59.66-11.35 60.64-11.67 62.18-12.08 63.72-12.5 64.3-12.7L64.3-12.7Q64.74-12.84 64.74-13.43L64.74-13.43 64.74-15.19Q64.74-19.19 62.3-19.19L62.3-19.19Q59.47-19.19 59.47-15.92L59.47-15.92Q59.47-14.84 58.59-14.33 57.71-13.82 56.64-13.82L56.64-13.82Q54.39-13.82 53.56-15.28L53.56-15.28Q53.56-17.77 56.86-19.85 60.15-21.92 64.01-21.92ZM92.67-21.83L92.67-21.83Q94.82-21.83 96.87-20.02L96.87-20.02Q96.87-17.48 96.26-16.26 95.65-15.04 94.04-15.04L94.04-15.04Q93.06-15.04 91.79-16.16 90.52-17.29 89.54-17.29L89.54-17.29Q88.08-17.29 87.47-15.65 86.86-14.01 86.86-12.16L86.86-12.16 86.86-7.23Q86.86-4.15 87.2-2.83L87.2-2.83Q87.3-2.49 88.49-2.05 89.69-1.61 90.08-1.61L90.08-1.61Q90.23-1.61 90.25-0.81 90.28 0 90.18 0.2L90.18 0.2Q89.59 0.15 87.2-0.02 84.81-0.2 83.68-0.2L83.68-0.2Q82.51-0.2 80.02-0.02 77.53 0.15 76.99 0.2L76.99 0.2Q76.8 0 76.8-0.81 76.8-1.61 76.99-1.61L76.99-1.61Q77.53-1.61 78.8-2.05 80.07-2.49 80.17-2.83L80.17-2.83Q80.51-4.3 80.51-6.54L80.51-6.54 80.51-13.23Q80.51-15.97 79.63-16.89L79.63-16.89Q79.29-17.29 78.61-17.53 77.92-17.77 77.43-17.87 76.95-17.97 76.95-18.02L76.95-18.02Q76.95-19.73 77.19-19.73L77.19-19.73Q77.78-19.73 79.14-20 80.51-20.26 82.71-20.75 84.9-21.24 86.13-21.48L86.13-21.48Q86.61-21.63 86.66-21.63L86.66-21.63Q86.91-21.63 87.15-21.31 87.39-21 87.39-20.8L87.39-20.8Q87.3-20.21 87.25-19.53 87.2-18.85 87.15-18.65L87.15-18.65Q89.54-21.83 92.67-21.83ZM117.08-21.78L117.08-21.78Q119.91-21.78 121.69-19.38 123.48-16.99 123.48-12.11L123.48-12.11 123.48-7.28Q123.48-4.15 123.82-2.83L123.82-2.83Q123.92-2.49 125.19-2.05 126.45-1.61 126.89-1.61L126.89-1.61Q127.04-1.61 127.07-0.81 127.09 0 126.99 0.2L126.99 0.2Q126.45 0.15 123.94-0.02 121.43-0.2 120.3-0.2L120.3-0.2Q119.13-0.2 116.76-0.02 114.39 0.15 113.81 0.2L113.81 0.2Q113.61 0 113.61-0.81 113.61-1.61 113.81-1.61L113.81-1.61Q114.35-1.61 115.52-2.05 116.69-2.49 116.79-2.83L116.79-2.83Q117.13-4.3 117.13-6.54L117.13-6.54 117.13-10.94Q117.13-14.55 116.13-16.09 115.13-17.63 112.93-17.63L112.93-17.63Q111.42-17.63 110.49-17.07 109.56-16.5 109.56-15.48L109.56-15.48 109.56-7.28Q109.56-4.15 109.9-2.83L109.9-2.83Q110-2.49 111.2-2.05 112.39-1.61 112.78-1.61L112.78-1.61Q112.93-1.61 112.95-0.81 112.98 0 112.88 0.2L112.88 0.2Q112.29 0.15 109.9-0.02 107.51-0.2 106.39-0.2L106.39-0.2Q105.21-0.2 102.72-0.02 100.23 0.15 99.7 0.2L99.7 0.2Q99.5 0 99.5-0.81 99.5-1.61 99.7-1.61L99.7-1.61Q100.23-1.61 101.5-2.05 102.77-2.49 102.87-2.83L102.87-2.83Q103.21-4.3 103.21-6.54L103.21-6.54 103.21-13.23Q103.21-15.97 102.33-16.89L102.33-16.89Q101.99-17.29 101.31-17.53 100.62-17.77 100.14-17.87 99.65-17.97 99.65-18.02L99.65-18.02Q99.65-19.73 99.89-19.73L99.89-19.73Q100.48-19.73 101.85-20 103.21-20.26 105.41-20.75 107.61-21.24 108.83-21.48L108.83-21.48Q108.93-21.48 109.05-21.53 109.17-21.58 109.27-21.58L109.27-21.58 109.37-21.63Q109.61-21.63 109.85-21.31 110.1-21 110.1-20.8L110.1-20.8Q109.9-19.43 109.9-19.29L109.9-19.29Q109.9-19.04 109.95-18.99L109.95-18.99Q110.05-18.99 110.29-19.24L110.29-19.24Q113.03-21.78 117.08-21.78ZM149.45-8.59L149.45-8.59Q149.45-15.38 143.44-15.38L143.44-15.38Q141.83-15.38 140.95-15.14L140.95-15.14Q140.42-14.94 140.42-14.7L140.42-14.7 140.42-3.71Q140.42-3.27 140.76-3.03L140.76-3.03Q141.25-2.69 144.42-2.69L144.42-2.69Q149.45-2.69 149.45-8.59ZM133.58-6.98L133.58-6.98 133.58-25.44Q133.58-28.13 133.29-29.25L133.29-29.25Q133.14-29.64 131.85-30.13 130.55-30.62 130.02-30.62L130.02-30.62Q129.82-30.62 129.82-31.49L129.82-31.49Q129.82-32.28 129.97-32.42L129.97-32.42Q133.87-32.18 137.15-32.18L137.15-32.18Q138.76-32.18 144.52-32.28L144.52-32.28Q146.33-32.28 148.18-31.81 150.04-31.35 151.77-30.37 153.5-29.39 154.58-27.64 155.65-25.88 155.65-23.58L155.65-23.58Q155.65-21.04 154.19-19.38 152.72-17.72 151.6-17.29L151.6-17.29Q151.21-17.14 151.35-16.99L151.35-16.99Q153.06-16.7 154.92-14.58 156.77-12.45 156.77-9.13L156.77-9.13Q156.77-4.93 153.36-2.42 149.94 0.1 144.37 0L144.37 0 137.19-0.1Q135.73-0.1 133.95-0.02 132.17 0.05 131.09 0.1L131.09 0.1 130.07 0.2Q129.87 0 129.87-0.63L129.87-0.63Q129.87-1.61 130.07-1.61L130.07-1.61Q130.65-1.61 131.9-1.95 133.14-2.29 133.29-2.69L133.29-2.69Q133.58-3.81 133.58-6.98ZM145.74-18.55L145.74-18.55Q146.47-18.95 146.86-19.29 147.25-19.63 147.72-20.73 148.18-21.83 148.18-23.54L148.18-23.54Q148.18-29.59 143.69-29.59L143.69-29.59Q141.54-29.59 140.86-29.39L140.86-29.39Q140.42-29.3 140.42-28.81L140.42-28.81 140.42-24.37 140.42-18.8Q140.42-18.12 142.96-18.12L142.96-18.12Q144.86-18.12 145.74-18.55ZM169.71-19.14L169.71-19.14Q167.81-19.14 166.93-17.31 166.05-15.48 166.05-13.72L166.05-13.72Q166.05-13.43 166.39-13.43L166.39-13.43 172.59-13.43Q173.28-13.43 173.28-14.36L173.28-14.36Q173.28-16.21 172.28-17.68 171.27-19.14 169.71-19.14ZM169.96-21.83L169.96-21.83Q174.35-21.83 177.01-18.77 179.67-15.72 179.67-12.55L179.67-12.55Q179.67-11.43 179.21-11.08 178.74-10.74 177.38-10.74L177.38-10.74 166.34-10.74Q166.05-10.74 166.05-10.4L166.05-10.4Q166.05-7.76 167.54-5.66 169.03-3.56 171.81-3.56L171.81-3.56Q173.42-3.56 174.89-4.03 176.35-4.49 176.94-4.86 177.52-5.22 178.5-5.96L178.5-5.96Q178.94-5.76 178.94-5.03L178.94-5.03Q178.94-4.44 178.74-4.05L178.74-4.05Q178.26-2.88 175.82-1.27 173.37 0.34 170.35 0.34L170.35 0.34Q165.85 0.34 162.61-2.93 159.36-6.2 159.36-10.79L159.36-10.79Q159.36-15.48 162.29-18.65 165.22-21.83 169.96-21.83ZM192.27-19.14L192.27-19.14Q190.36-19.14 189.48-17.31 188.61-15.48 188.61-13.72L188.61-13.72Q188.61-13.43 188.95-13.43L188.95-13.43 195.15-13.43Q195.83-13.43 195.83-14.36L195.83-14.36Q195.83-16.21 194.83-17.68 193.83-19.14 192.27-19.14ZM192.51-21.83L192.51-21.83Q196.91-21.83 199.57-18.77 202.23-15.72 202.23-12.55L202.23-12.55Q202.23-11.43 201.76-11.08 201.3-10.74 199.93-10.74L199.93-10.74 188.9-10.74Q188.61-10.74 188.61-10.4L188.61-10.4Q188.61-7.76 190.09-5.66 191.58-3.56 194.37-3.56L194.37-3.56Q195.98-3.56 197.44-4.03 198.91-4.49 199.49-4.86 200.08-5.22 201.06-5.96L201.06-5.96Q201.5-5.76 201.5-5.03L201.5-5.03Q201.5-4.44 201.3-4.05L201.3-4.05Q200.81-2.88 198.37-1.27 195.93 0.34 192.9 0.34L192.9 0.34Q188.41 0.34 185.16-2.93 181.92-6.2 181.92-10.79L181.92-10.79Q181.92-15.48 184.85-18.65 187.78-21.83 192.51-21.83Z" opacity="1" transform="matrix(1,0,0,1,0,0)" fill="#000000" class="wordmark-text-0" data-fill-palette-color="primary" id="text-0"></path></svg></g></svg></g></svg></g></svg></g><g><svg viewBox="0 0 86.85975826672279 89.10942600583091" height="89.10942600583091" width="86.85975826672279"><g><svg xmlns="http://www.w3.org/2000/svg" xmlns:xlink="http://www.w3.org/1999/xlink" version="1.1" x="0" y="0" viewBox="3 4.526999999999999 90 92.331" enable-background="new 0 0 100 100" xml:space="preserve" height="89.10942600583091" width="86.85975826672279" class="icon-icon-0" data-fill-palette-color="accent" id="icon-0"><path d="M90 25.642l-12 6.644-12-6.644V11.171l12-6.644L85 8v1h-3v2l-4-1.9-8 4.429v9.756l8 4.429 8-4.429V19h4" fill="#fede3e" data-fill-palette-color="accent"></path><path d="M43.5 92.611c-10.941 0-19.5-8.853-19.5-19.734V45.872c0-10.88 8.559-19.733 19.5-19.733 10.941 0 19.5 8.854 19.5 19.733v27.005C63 83.759 54.441 92.611 43.5 92.611zM43.5 31.1c-8.206 0-13.5 6.626-13.5 14.772v27.005c0 8.146 5.294 14.773 13.5 14.773 8.207 0 13.5-6.627 13.5-14.773V45.872C57 37.727 51.707 31.1 43.5 31.1z" fill="#fede3e" data-fill-palette-color="accent"></path><path d="M74.433 60.863c3.968 0 9.922 4.887 9.922 10.913 0 6.027-4.885 10.914-10.914 10.914-6.027 0-10.913-4.887-10.913-10.914" fill="#fede3e" data-fill-palette-color="accent"></path><polygon points="77.684,66.604 58.834,41.786 61.69,39.065 82.369,65.825 " fill="#fede3e" data-fill-palette-color="accent"></polygon><path d="M61.536 46.973c0-9.863-7.997-17.857-17.859-17.857-9.864 0-17.858 7.995-17.858 17.857" fill="#fede3e" data-fill-palette-color="accent"></path><rect x="29" y="51" width="32" height="6" fill="#fede3e" data-fill-palette-color="accent"></rect><rect x="29" y="60" width="32" height="6" fill="#fede3e" data-fill-palette-color="accent"></rect><rect x="29" y="69" width="32" height="6" fill="#fede3e" data-fill-palette-color="accent"></rect><path d="M12.921 60.863C8.952 60.863 3 65.75 3 71.776 3 77.804 7.885 82.69 13.914 82.69s10.913-4.887 10.913-10.914" fill="#fede3e" data-fill-palette-color="accent"></path><polygon points="9.749,66.138 4.984,65.825 25.664,39.065 28.599,41.319 " fill="#fede3e" data-fill-palette-color="accent"></polygon><g fill="#fede3e" data-fill-palette-color="accent"><polyline points="38.716,90.131 43.677,96.085 48.638,90.131  " fill="#fede3e" data-fill-palette-color="accent"></polyline><polygon points="43.677,96.858 38.335,90.449 39.098,89.813 43.677,95.308 48.256,89.813 49.02,90.449  " fill="#fede3e" data-fill-palette-color="accent"></polygon></g><rect x="30.618" y="23.659" transform="matrix(0.3162 0.9487 -0.9487 0.3162 47.8785 -14.1505)" width="6.275" height="4.96" fill="#fede3e" data-fill-palette-color="accent"></rect><rect x="51.117" y="23.002" transform="matrix(0.9486 0.3163 -0.3163 0.9486 11.0214 -15.613)" width="4.961" height="6.273" fill="#fede3e" data-fill-palette-color="accent"></rect><polygon points="90,8 90,11 93,11 93,14 90,14 90,17 87,17 87,14 84,14 84,11 87,11 87,8 " fill="#fede3e" data-fill-palette-color="accent"></polygon></svg></g></svg></g></svg></g><defs></defs></svg><rect width="395.52" height="67.95596587042576" fill="none" stroke="none" visibility="hidden"></rect></g></svg></g></svg>