<svg width="139" height="23" viewBox="0 0 139 23" fill="none" xmlns="http://www.w3.org/2000/svg">
<g id="Frame" clip-path="url(#clip0_133_1802)">
<path id="text-0" d="M5.02851 0.27432C5.48041 0.27432 7.05744 0.206454 9.7596 0.0707232C9.82877 0.276659 9.86336 0.480255 9.86336 0.68151C9.86336 1.11678 9.81724 1.33442 9.72502 1.33442C9.52213 1.33442 9.11634 1.43271 8.50766 1.62928C7.9036 1.82118 7.57851 1.99669 7.53239 2.15583C7.37561 2.77363 7.29722 3.68865 7.29722 4.90086V17.8959C7.29722 19.0145 7.38714 19.8359 7.56698 20.3601C7.67765 20.7252 8.44311 20.9077 9.86336 20.9077H10.7418C12.1344 20.9077 13.3955 20.6105 14.5253 20.0161C14.908 19.8102 15.3415 19.4217 15.8256 18.8507C16.3098 18.2797 16.6856 17.6408 16.9531 16.9341C16.9992 16.7984 17.156 16.7305 17.4234 16.7305C17.9675 16.7305 18.3065 16.7984 18.4402 16.9341C17.3381 20.0886 16.7294 22.0544 16.6142 22.8313C15.3322 22.8313 13.3287 22.8079 10.6035 22.7611C7.87823 22.7143 6.03145 22.6909 5.0631 22.6909L0.131419 22.9016C0.0438064 22.8079 0 22.6137 0 22.3188C0 21.8602 0.0438064 21.6308 0.131419 21.6308C0.40348 21.6308 0.82771 21.5513 1.40411 21.3921C1.9759 21.233 2.29638 21.0598 2.36555 20.8726C2.49927 20.3484 2.56613 19.3445 2.56613 17.8608V4.76747C2.56613 3.37272 2.47621 2.51387 2.29638 2.19093C2.18571 2.0084 1.86984 1.82118 1.34878 1.62928C0.832322 1.43271 0.449592 1.33442 0.200587 1.33442C0.112974 1.33442 0.069168 1.14019 0.069168 0.751716C0.069168 0.339844 0.0899184 0.112847 0.131419 0.0707232C3.23937 0.206454 4.87173 0.27432 5.02851 0.27432ZM27.3559 9.32381C26.4752 9.32381 25.8319 9.75206 25.4262 10.6086C25.025 11.4651 24.8244 12.3052 24.8244 13.1289C24.8244 13.2647 24.9028 13.3325 25.0596 13.3325H29.348C29.6615 13.3325 29.8183 13.1149 29.8183 12.6796C29.8183 11.8138 29.5878 11.0368 29.1266 10.3488C28.6655 9.66547 28.0753 9.32381 27.3559 9.32381ZM27.5219 7.43528C29.5509 7.43528 31.1786 8.15137 32.4052 9.58357C33.6318 11.0111 34.2451 12.4667 34.2451 13.9503C34.2451 14.4746 34.1367 14.8186 33.92 14.9824C33.7079 15.1415 33.2859 15.2211 32.6542 15.2211H25.025C24.8913 15.2211 24.8244 15.3006 24.8244 15.4598C24.8244 16.6954 25.1656 17.8046 25.8481 18.7875C26.5351 19.7704 27.5219 20.2618 28.8085 20.2618C29.5509 20.2618 30.2587 20.1518 30.9319 19.9319C31.6098 19.7166 32.0824 19.5223 32.3499 19.3491C32.6219 19.1807 32.9839 18.9232 33.4358 18.5769C33.6387 18.6705 33.7401 18.8881 33.7401 19.2298C33.7401 19.5059 33.694 19.7353 33.6018 19.9178C33.3759 20.4654 32.7003 21.116 31.5752 21.8695C30.4501 22.6231 29.1889 22.9998 27.7917 22.9998C25.7213 22.9998 23.9367 22.2346 22.4381 20.7041C20.9441 19.1736 20.1971 17.3343 20.1971 15.186C20.1971 12.9909 20.8726 11.1515 22.2237 9.66781C23.5748 8.17946 25.3408 7.43528 27.5219 7.43528ZM42.0472 20.5356C42.6328 20.5356 43.087 20.3929 43.4098 20.1074C43.7372 19.8219 43.9009 19.4732 43.9009 19.0613V15.5932C43.8548 15.6166 43.6358 15.6914 43.2438 15.8178C42.8473 15.9442 42.5937 16.0308 42.483 16.0776C42.3723 16.1244 42.1579 16.2086 41.8397 16.3303C41.5262 16.4567 41.3071 16.5714 41.1826 16.6743C41.0581 16.7773 40.906 16.9083 40.7261 17.0675C40.5463 17.2313 40.4218 17.4045 40.3526 17.587C40.2881 17.7695 40.2558 17.9755 40.2558 18.2048C40.2558 19.0239 40.4287 19.6159 40.7745 19.981C41.125 20.3507 41.5492 20.5356 42.0472 20.5356ZM43.396 7.37209C44.973 7.37209 46.1835 7.81205 47.0273 8.69196C47.8712 9.57187 48.2931 11.1655 48.2931 13.473V19.0262C48.2931 19.8031 48.5629 20.1916 49.1024 20.1916C49.4851 20.1916 49.8678 20.0418 50.2505 19.7423C50.4073 19.8359 50.4857 20.0091 50.4857 20.2618C50.4857 20.8328 50.4073 21.2541 50.2505 21.5255C49.937 21.8251 49.4251 22.1386 48.715 22.4663C48.0049 22.7986 47.334 22.9647 46.7022 22.9647C46.1627 22.9647 45.6463 22.7986 45.1529 22.4663C44.6549 22.1386 44.3275 21.7572 44.1707 21.3219C44.1476 21.3219 44.0577 21.3851 43.9009 21.5115C43.7441 21.6378 43.5413 21.7806 43.2922 21.9397C43.0479 22.0989 42.762 22.258 42.4346 22.4171C42.1072 22.5763 41.7175 22.7143 41.2656 22.8313C40.8183 22.9437 40.3687 22.9998 39.9169 22.9998C38.6764 22.9998 37.6919 22.6511 36.9634 21.9538C36.2302 21.2564 35.8636 20.3835 35.8636 19.3351C35.8636 18.7173 36.0042 18.151 36.2855 17.6361C36.5668 17.1213 36.8942 16.6977 37.2677 16.3654C37.6366 16.0378 38.1369 15.7312 38.7687 15.4457C39.4004 15.1555 39.9399 14.9379 40.3872 14.7928C40.8391 14.643 41.4201 14.4722 42.1302 14.2803C42.8404 14.0837 43.3291 13.9386 43.5966 13.845C43.7995 13.7795 43.9009 13.6087 43.9009 13.3325V12.0969C43.9009 10.2248 43.3384 9.2887 42.2132 9.2887C40.9083 9.2887 40.2558 10.0539 40.2558 11.5844C40.2558 12.0899 40.0529 12.462 39.6471 12.7007C39.2413 12.9394 38.7917 13.0587 38.2983 13.0587C37.2608 13.0587 36.5507 12.7171 36.1679 12.0337C36.1679 10.8683 36.9288 9.79886 38.4505 8.82535C39.9676 7.85651 41.6161 7.37209 43.396 7.37209ZM63.2195 7.43528C64.211 7.43528 65.1793 7.85885 66.1246 8.706C66.1246 9.89481 65.984 10.7747 65.7027 11.3457C65.4214 11.9167 64.9096 12.2022 64.1672 12.2022C63.7153 12.2022 63.1965 11.9401 62.6109 11.4159C62.0252 10.887 61.5065 10.6226 61.0546 10.6226C60.3814 10.6226 59.9041 11.0064 59.6228 11.774C59.3415 12.5416 59.2009 13.3583 59.2009 14.2242V17.6853C59.2009 19.1268 59.2793 20.1565 59.4361 20.7743C59.4822 20.9335 59.7796 21.116 60.3283 21.3219C60.8817 21.5279 61.2483 21.6308 61.4281 21.6308C61.4973 21.6308 61.5365 21.818 61.5457 22.1925C61.5595 22.5716 61.5434 22.8079 61.4973 22.9016C61.2252 22.8781 60.5381 22.8267 59.4361 22.7471C58.334 22.6628 57.5224 22.6207 57.0013 22.6207C56.4618 22.6207 55.618 22.6628 54.4698 22.7471C53.3216 22.8267 52.623 22.8781 52.374 22.9016C52.2864 22.8079 52.2426 22.5716 52.2426 22.1925C52.2426 21.818 52.2864 21.6308 52.374 21.6308C52.623 21.6308 53.0403 21.5279 53.6259 21.3219C54.2116 21.116 54.5274 20.9335 54.5736 20.7743C54.7303 20.0863 54.8087 19.2181 54.8087 18.1697V13.473C54.8087 12.1905 54.6058 11.334 54.2 10.9034C54.0433 10.7162 53.8081 10.5664 53.4945 10.4541C53.1764 10.3418 52.9043 10.2622 52.6783 10.2154C52.457 10.1686 52.3463 10.1335 52.3463 10.1101C52.3463 9.30977 52.4017 8.90959 52.5123 8.90959C52.7844 8.90959 53.234 8.84641 53.8611 8.72004C54.4929 8.59835 55.316 8.42284 56.3304 8.1935C57.3403 7.96416 58.1288 7.79333 58.696 7.681C58.9173 7.61079 59.0395 7.57569 59.0626 7.57569C59.1778 7.57569 59.2908 7.65058 59.4015 7.80035C59.5121 7.94544 59.5675 8.06479 59.5675 8.1584C59.526 8.43454 59.4937 8.73174 59.4706 9.05C59.4476 9.36827 59.4245 9.57421 59.4015 9.66781C60.5036 8.17946 61.7762 7.43528 63.2195 7.43528ZM80.1035 7.47038C81.4084 7.47038 82.4713 8.03203 83.2921 9.15531C84.1175 10.2739 84.5302 11.9752 84.5302 14.2593V17.6502C84.5302 19.1151 84.6086 20.1565 84.7654 20.7743C84.8115 20.9335 85.1274 21.116 85.713 21.3219C86.294 21.5279 86.6859 21.6308 86.8888 21.6308C86.958 21.6308 86.9995 21.818 87.0133 22.1925C87.0226 22.5716 87.0041 22.8079 86.958 22.9016C86.709 22.8781 86.0058 22.8267 84.8484 22.7471C83.691 22.6628 82.8517 22.6207 82.3307 22.6207C81.7912 22.6207 80.975 22.6628 79.8821 22.7471C78.7893 22.8267 78.1091 22.8781 77.8417 22.9016C77.7494 22.8079 77.7033 22.5716 77.7033 22.1925C77.7033 21.818 77.7494 21.6308 77.8417 21.6308C78.0907 21.6308 78.4849 21.5279 79.0244 21.3219C79.5639 21.116 79.8568 20.9335 79.9029 20.7743C80.0597 20.0863 80.138 19.2181 80.138 18.1697V15.0807C80.138 13.391 79.9075 12.1859 79.4464 11.4651C78.9852 10.7443 78.2475 10.3839 77.233 10.3839C76.5367 10.3839 75.9741 10.515 75.5453 10.7771C75.1164 11.0438 74.902 11.4159 74.902 11.8933V17.6502C74.902 19.1151 74.9804 20.1565 75.1372 20.7743C75.1833 20.9335 75.483 21.116 76.0364 21.3219C76.5851 21.5279 76.9494 21.6308 77.1292 21.6308C77.1984 21.6308 77.2376 21.818 77.2468 22.1925C77.2607 22.5716 77.2445 22.8079 77.1984 22.9016C76.9263 22.8781 76.2393 22.8267 75.1372 22.7471C74.0351 22.6628 73.2259 22.6207 72.7094 22.6207C72.1653 22.6207 71.3191 22.6628 70.1709 22.7471C69.0227 22.8267 68.3265 22.8781 68.0821 22.9016C67.9898 22.8079 67.9437 22.5716 67.9437 22.1925C67.9437 21.818 67.9898 21.6308 68.0821 21.6308C68.3265 21.6308 68.7415 21.5279 69.3271 21.3219C69.9127 21.116 70.2286 20.9335 70.2747 20.7743C70.4315 20.0863 70.5099 19.2181 70.5099 18.1697V13.473C70.5099 12.1905 70.307 11.334 69.9012 10.9034C69.7444 10.7162 69.5092 10.5664 69.1957 10.4541C68.8775 10.3418 68.6077 10.2622 68.3864 10.2154C68.1605 10.1686 68.0475 10.1335 68.0475 10.1101C68.0475 9.30977 68.1028 8.90959 68.2135 8.90959C68.4855 8.90959 68.9374 8.84641 69.5692 8.72004C70.1963 8.59835 71.0171 8.42284 72.0316 8.1935C73.046 7.96416 73.8345 7.79333 74.3971 7.681C74.4432 7.681 74.4939 7.6693 74.5493 7.6459C74.6046 7.62249 74.6553 7.61079 74.7014 7.61079L74.7706 7.57569C74.8813 7.57569 74.9919 7.65058 75.1026 7.80035C75.2179 7.94544 75.2755 8.06479 75.2755 8.1584C75.1833 8.79961 75.1372 9.15297 75.1372 9.2185C75.1372 9.33551 75.1487 9.40571 75.1718 9.42912C75.2179 9.42912 75.2963 9.37061 75.407 9.2536C76.6704 8.06479 78.2359 7.47038 80.1035 7.47038ZM102.493 16.7305C102.493 13.5525 101.107 11.9635 98.3361 11.9635C97.5937 11.9635 97.0196 12.0197 96.6139 12.132C96.3695 12.2256 96.2473 12.3286 96.2473 12.4409V20.1565C96.2473 20.3625 96.3257 20.5216 96.4824 20.6339C96.7084 20.793 97.5522 20.8726 99.014 20.8726C101.333 20.8726 102.493 19.4919 102.493 16.7305ZM91.5162 17.8608V4.90086C91.5162 3.64184 91.4493 2.75023 91.3156 2.22603C91.2464 2.0435 90.9144 1.83756 90.3196 1.60822C89.7201 1.37889 89.2982 1.26422 89.0538 1.26422C88.9616 1.26422 88.9155 1.06062 88.9155 0.653429C88.9155 0.28368 88.95 0.0660439 89.0192 0.000518799C90.8176 0.112848 92.473 0.16901 93.9855 0.16901C94.7279 0.16901 96.4271 0.14561 99.0832 0.0988061C99.9178 0.0988061 100.762 0.208794 101.615 0.428771C102.472 0.644068 103.3 0.981054 104.098 1.43973C104.896 1.89841 105.543 2.53728 106.041 3.35634C106.535 4.18008 106.782 5.1302 106.782 6.20668C106.782 7.3955 106.445 8.37837 105.772 9.15531C105.094 9.93225 104.497 10.4214 103.98 10.6226C103.8 10.6928 103.743 10.763 103.807 10.8332C104.596 10.969 105.419 11.5329 106.277 12.5252C107.13 13.5221 107.556 14.7975 107.556 16.3514C107.556 18.3171 106.77 19.8874 105.198 21.0622C103.621 22.2416 101.548 22.8079 98.9794 22.7611L94.0131 22.6909C93.3399 22.6909 92.5929 22.7097 91.7721 22.7471C90.9513 22.7799 90.2919 22.8079 89.7939 22.8313L89.0884 22.9016C88.9962 22.8079 88.95 22.6137 88.95 22.3188C88.95 21.8602 88.9962 21.6308 89.0884 21.6308C89.3558 21.6308 89.7777 21.5513 90.3541 21.3921C90.9259 21.233 91.2464 21.0598 91.3156 20.8726C91.4493 20.3484 91.5162 19.3445 91.5162 17.8608ZM99.927 9.73802C100.264 9.55081 100.522 9.37763 100.702 9.2185C100.882 9.05937 101.08 8.72238 101.297 8.20754C101.509 7.6927 101.615 7.03511 101.615 6.23476C101.615 3.40314 100.579 1.98733 98.5091 1.98733C97.5176 1.98733 96.8652 2.03414 96.5516 2.12774C96.3487 2.16987 96.2473 2.3056 96.2473 2.53494V5.65206V9.56251C96.2473 9.88077 96.8329 10.0399 98.0041 10.0399C98.8803 10.0399 99.5212 9.93928 99.927 9.73802ZM116.507 9.32381C115.63 9.32381 114.989 9.75206 114.584 10.6086C114.178 11.4651 113.975 12.3052 113.975 13.1289C113.975 13.2647 114.053 13.3325 114.21 13.3325H118.499C118.817 13.3325 118.976 13.1149 118.976 12.6796C118.976 11.8138 118.745 11.0368 118.284 10.3488C117.818 9.66547 117.226 9.32381 116.507 9.32381ZM116.679 7.43528C118.704 7.43528 120.329 8.15137 121.556 9.58357C122.782 11.0111 123.396 12.4667 123.396 13.9503C123.396 14.4746 123.29 14.8186 123.078 14.9824C122.861 15.1415 122.439 15.2211 121.812 15.2211H114.176C114.042 15.2211 113.975 15.3006 113.975 15.4598C113.975 16.6954 114.319 17.8046 115.006 18.7875C115.693 19.7704 116.677 20.2618 117.959 20.2618C118.701 20.2618 119.412 20.1518 120.089 19.9319C120.763 19.7166 121.235 19.5223 121.507 19.3491C121.775 19.1807 122.135 18.9232 122.586 18.5769C122.789 18.6705 122.891 18.8881 122.891 19.2298C122.891 19.5059 122.845 19.7353 122.752 19.9178C122.531 20.4654 121.858 21.116 120.733 21.8695C119.603 22.6231 118.342 22.9998 116.949 22.9998C114.874 22.9998 113.09 22.2346 111.596 20.7041C110.097 19.1736 109.348 17.3343 109.348 15.186C109.348 12.9909 110.023 11.1515 111.374 9.66781C112.725 8.17946 114.494 7.43528 116.679 7.43528ZM132.111 9.32381C131.23 9.32381 130.587 9.75206 130.181 10.6086C129.78 11.4651 129.579 12.3052 129.579 13.1289C129.579 13.2647 129.658 13.3325 129.814 13.3325H134.103C134.416 13.3325 134.573 13.1149 134.573 12.6796C134.573 11.8138 134.343 11.0368 133.882 10.3488C133.42 9.66547 132.83 9.32381 132.111 9.32381ZM132.277 7.43528C134.306 7.43528 135.934 8.15137 137.16 9.58357C138.387 11.0111 139 12.4667 139 13.9503C139 14.4746 138.892 14.8186 138.675 14.9824C138.463 15.1415 138.041 15.2211 137.409 15.2211H129.78C129.646 15.2211 129.579 15.3006 129.579 15.4598C129.579 16.6954 129.921 17.8046 130.603 18.7875C131.29 19.7704 132.277 20.2618 133.563 20.2618C134.306 20.2618 135.014 20.1518 135.687 19.9319C136.365 19.7166 136.837 19.5223 137.105 19.3491C137.377 19.1807 137.739 18.9232 138.191 18.5769C138.394 18.6705 138.495 18.8881 138.495 19.2298C138.495 19.5059 138.449 19.7353 138.357 19.9178C138.131 20.4654 137.455 21.116 136.33 21.8695C135.205 22.6231 133.944 22.9998 132.547 22.9998C130.476 22.9998 128.692 22.2346 127.193 20.7041C125.699 19.1736 124.952 17.3343 124.952 15.186C124.952 12.9909 125.628 11.1515 126.979 9.66781C128.33 8.17946 130.096 7.43528 132.277 7.43528Z" fill="#5D3737"/>
</g>
<defs>
<clipPath id="clip0_133_1802">
<rect width="139" height="23" fill="white"/>
</clipPath>
</defs>
</svg>
