<svg width="24" height="24" viewBox="0 0 24 24" fill="none" xmlns="http://www.w3.org/2000/svg">
<path id="Vector" d="M21 0C20.235 0 19.483 0.3 18.906 0.876L9 10.75L8.78 10.97L8.72 11.283L8.03 14.783L7.72 16.251L9.187 15.941L12.687 15.251L13 15.191L13.22 14.971L23.094 5.065C23.5075 4.65001 23.789 4.12191 23.903 3.54724C24.0169 2.97257 23.9582 2.37703 23.7343 1.83565C23.5104 1.29426 23.1313 0.831256 22.6447 0.504954C22.1581 0.178652 21.5859 0.00365155 21 0.00199986V0ZM21 1.94C21.235 1.94 21.464 2.06 21.688 2.283C22.134 2.729 22.134 3.211 21.688 3.658L12 13.344L10.28 13.688L10.625 11.968L20.313 2.28C20.536 2.057 20.765 1.937 21 1.937V1.94ZM0 3.97V23.97H20V10.782L18 12.782V21.97H2V5.97H11.188L13.188 3.97H0Z" fill="#5D3737"/>
</svg>
