<svg width="15" height="15" viewBox="0 0 15 15" fill="none" xmlns="http://www.w3.org/2000/svg">
<path id="Vector" d="M8.06166 13.8866C7.97777 13.7982 7.91121 13.6931 7.8658 13.5773C7.82038 13.4616 7.797 13.3375 7.797 13.2122C7.797 13.0869 7.82038 12.9628 7.8658 12.8471C7.91121 12.7314 7.97777 12.6263 8.06166 12.5378L11.9226 8.45252L0.899822 8.45252C0.661174 8.45252 0.432301 8.35221 0.263552 8.17366C0.0948025 7.99511 -3.02467e-07 7.75294 -2.91429e-07 7.50043C-2.80391e-07 7.24792 0.0948026 7.00575 0.263552 6.82719C0.432301 6.64864 0.661175 6.54833 0.899822 6.54833L11.9226 6.54833L8.06166 2.46146C7.89262 2.2826 7.79765 2.04001 7.79765 1.78706C7.79765 1.53411 7.89262 1.29152 8.06166 1.11266C8.2307 0.933797 8.45997 0.833313 8.69903 0.833313C8.9381 0.833313 9.16737 0.933797 9.33641 1.11266L14.7353 6.82523C14.8192 6.91369 14.8858 7.01879 14.9312 7.13452C14.9766 7.25025 15 7.37433 15 7.49964C15 7.62494 14.9766 7.74902 14.9312 7.86475C14.8858 7.98048 14.8192 8.08558 14.7353 8.17404L9.33641 13.8866C9.25281 13.9754 9.15348 14.0458 9.0441 14.0939C8.93473 14.1419 8.81746 14.1666 8.69903 14.1666C8.5806 14.1666 8.46334 14.1419 8.35396 14.0939C8.24459 14.0458 8.14525 13.9754 8.06166 13.8866Z" fill="#3C3C3C"/>
</svg>
