<svg width="21" height="21" viewBox="0 0 21 21" fill="none" xmlns="http://www.w3.org/2000/svg">
<g id="carbon:recently-viewed">
<path id="Vector" d="M13.5122 14.4375L9.84375 10.7691V4.59375H11.1562V10.2244L14.4375 13.5122L13.5122 14.4375Z" fill="#5D3737"/>
<path id="Vector_2" d="M10.5 1.3125C9.27606 1.31267 8.06461 1.55845 6.93737 2.03527C5.81013 2.51209 4.79004 3.21026 3.9375 4.08844V1.3125H2.625V6.5625H7.875V5.25H4.64625C5.87739 3.88191 7.54883 2.98825 9.37028 2.72423C11.1917 2.4602 13.0481 2.84249 14.617 3.8047C16.186 4.76691 17.3683 6.24825 17.9588 7.99146C18.5492 9.73466 18.5104 11.6296 17.8491 13.3472C17.1879 15.0648 15.9459 16.4965 14.3389 17.3937C12.7319 18.2909 10.8614 18.5969 9.05231 18.2586C7.24319 17.9202 5.60972 16.9589 4.43559 15.5416C3.26146 14.1243 2.62085 12.3405 2.625 10.5H1.3125C1.3125 12.3171 1.85134 14.0934 2.86087 15.6043C3.87041 17.1152 5.3053 18.2928 6.9841 18.9881C8.66289 19.6835 10.5102 19.8655 12.2924 19.511C14.0746 19.1565 15.7116 18.2814 16.9965 16.9965C18.2814 15.7116 19.1565 14.0746 19.511 12.2924C19.8655 10.5102 19.6835 8.66289 18.9881 6.9841C18.2928 5.3053 17.1152 3.87041 15.6043 2.86087C14.0934 1.85134 12.3171 1.3125 10.5 1.3125Z" fill="#5D3737"/>
</g>
</svg>
