<svg width="31" height="31" viewBox="0 0 31 31" fill="none" xmlns="http://www.w3.org/2000/svg">
<g id="iconamoon:notification-fill">
<path id="Vector" fill-rule="evenodd" clip-rule="evenodd" d="M15.5 1.29163C15.1297 1.29158 14.7638 1.37113 14.4269 1.52488C14.0901 1.67864 13.7902 1.90301 13.5477 2.1828C13.3051 2.46258 13.1256 2.79123 13.0212 3.14648C12.9167 3.50172 12.8899 3.87527 12.9425 4.24179C11.0704 4.79453 9.42731 5.93803 8.25865 7.50153C7.08998 9.06503 6.45844 10.9646 6.45833 12.9166V23.25H5.16667C4.8241 23.25 4.49555 23.386 4.25332 23.6283C4.01109 23.8705 3.875 24.1991 3.875 24.5416C3.875 24.8842 4.01109 25.2127 4.25332 25.455C4.49555 25.6972 4.8241 25.8333 5.16667 25.8333H25.8333C26.1759 25.8333 26.5044 25.6972 26.7467 25.455C26.9889 25.2127 27.125 24.8842 27.125 24.5416C27.125 24.1991 26.9889 23.8705 26.7467 23.6283C26.5044 23.386 26.1759 23.25 25.8333 23.25H24.5417V12.9166C24.5416 10.9646 23.91 9.06503 22.7414 7.50153C21.5727 5.93803 19.9296 4.79453 18.0575 4.24179C18.1101 3.87527 18.0833 3.50172 17.9788 3.14648C17.8744 2.79123 17.6949 2.46258 17.4523 2.1828C17.2098 1.90301 16.9099 1.67864 16.5731 1.52488C16.2362 1.37113 15.8703 1.29158 15.5 1.29163ZM18.0833 28.4166C18.0833 28.7592 17.9472 29.0877 17.705 29.33C17.4628 29.5722 17.1342 29.7083 16.7917 29.7083H14.2083C13.8658 29.7083 13.5372 29.5722 13.295 29.33C13.0528 29.0877 12.9167 28.7592 12.9167 28.4166C12.9167 28.0741 13.0528 27.7455 13.295 27.5033C13.5372 27.261 13.8658 27.125 14.2083 27.125H16.7917C17.1342 27.125 17.4628 27.261 17.705 27.5033C17.9472 27.7455 18.0833 28.0741 18.0833 28.4166Z" fill="#5D3737"/>
</g>
</svg>
