<svg width="19" height="19" viewBox="0 0 19 19" fill="none" xmlns="http://www.w3.org/2000/svg">
<g id="fluent-mdl2:book-answers">
<path id="Vector" d="M3.5625 0H16.625V19H3.5625C3.2347 19 2.92855 18.9382 2.64404 18.8145C2.35954 18.6908 2.10596 18.5207 1.8833 18.3042C1.66064 18.0877 1.49056 17.8372 1.37305 17.5527C1.25553 17.2682 1.19368 16.959 1.1875 16.625V2.375C1.1875 2.0472 1.24935 1.74105 1.37305 1.45654C1.49674 1.17204 1.66683 0.918457 1.8833 0.695801C2.09977 0.473145 2.35026 0.30306 2.63477 0.185547C2.91927 0.0680339 3.22852 0.0061849 3.5625 0ZM15.4375 17.8125V15.4375H3.5625C3.39551 15.4375 3.24089 15.4684 3.09863 15.5303C2.95638 15.5921 2.83268 15.6756 2.72754 15.7808C2.6224 15.8859 2.53581 16.0127 2.46777 16.1611C2.39974 16.3096 2.36882 16.4642 2.375 16.625C2.375 16.792 2.40592 16.9466 2.46777 17.0889C2.52962 17.2311 2.61312 17.3548 2.71826 17.46C2.8234 17.5651 2.9502 17.6517 3.09863 17.7197C3.24707 17.7878 3.40169 17.8187 3.5625 17.8125H15.4375ZM15.4375 14.25V1.1875H3.5625C3.39551 1.1875 3.24089 1.21842 3.09863 1.28027C2.95638 1.34212 2.83268 1.42562 2.72754 1.53076C2.6224 1.6359 2.53581 1.7627 2.46777 1.91113C2.39974 2.05957 2.36882 2.21419 2.375 2.375V14.5654C2.74609 14.3551 3.14193 14.25 3.5625 14.25H15.4375ZM8.3125 11.875V5.9375H9.5V11.875H8.3125ZM8.3125 4.75V3.5625H9.5V4.75H8.3125Z" fill="#5D3737"/>
</g>
</svg>
