<svg width="29" height="29" viewBox="0 0 29 29" fill="none" xmlns="http://www.w3.org/2000/svg">
<g id="bxs:upvote">
<path id="Vector" d="M4.83333 16.9167H9.66667V25.375C9.66667 25.6955 9.79397 26.0028 10.0206 26.2294C10.2472 26.456 10.5545 26.5833 10.875 26.5833H18.125C18.4455 26.5833 18.7528 26.456 18.9794 26.2294C19.206 26.0028 19.3333 25.6955 19.3333 25.375V16.9167H24.1667C24.3942 16.9163 24.6169 16.8517 24.8094 16.7305C25.0019 16.6092 25.1562 16.4361 25.2548 16.2311C25.3533 16.026 25.392 15.7974 25.3665 15.5713C25.341 15.3453 25.2522 15.131 25.1104 14.9531L15.4437 2.86978C14.9833 2.29583 14.0167 2.29583 13.5563 2.86978L3.88962 14.9531C3.74781 15.131 3.65904 15.3453 3.6335 15.5713C3.60795 15.7974 3.64668 16.026 3.74522 16.2311C3.84377 16.4361 3.99813 16.6092 4.19061 16.7305C4.38308 16.8517 4.60584 16.9163 4.83333 16.9167Z" fill="#FEDE3E"/>
</g>
</svg>
